<svg width="116" height="104" fill="none" xmlns="http://www.w3.org/2000/svg"><path d="M74.534 91.89c-18.033 5.573-42.205 1.524-56.196-15.182-9.562-11.412-10.484-31.364 4.67-41.27 15.153-9.907 19.38-2.409 29.558-10.322 10.048-7.794 26.06-17.47 42.225-7.507 11.219 9.408 18.231 23.52 12.461 42.823-3.358 11.191-9.772 24.385-32.718 31.459z" fill="#EAF5FF"/><mask id="a" maskUnits="userSpaceOnUse" x="-7" y="-7" width="124" height="110"><path d="M74.54 91.892c-18.034 5.572-54.146-3.927-68.138-20.634-9.562-11.411-8.688-31.06 6.466-40.967 15.155-9.907 28.551-3.57 38.73-11.483 10.05-7.794 30.155-16.923 46.23-3.434 11.219 9.408 15.202 25.756 9.432 45.059-3.359 11.192-9.773 24.385-32.72 31.459z" fill="#EAF5FF"/></mask><g mask="url(#a)"><path d="M27.607 103.253c17.71 1.91 32.183 3.123 47.448.562 0 0 .045-14.09.159-22.607.022-2.113.362-3.753.362-4.9 0-.74.023-1.595.068-2.561.294-6.562 1.54-17.191 1.54-17.191l22.309 9.505c1.382.607 2.537 1.483 2.944 2.922.499 1.82 1.201 4.472 1.699 6.989.861 4.404 1.653 11.033 1.653 11.033s1.88-.898 5.459.9c0 0 .475-9.596.475-12.99.023-3.663-.86-9.753-2.604-12.494-1.269-1.978-16.715-15.124-26.884-20.517-2.061-1.101-5.277-2-8.312-2.674a49.693 49.693 0 00-1.767-.382 1.143 1.143 0 00-.272-.045c-.724-.135-1.404-.27-2.015-.382-2.174-.405-3.692-.607-3.692-.607l-4.892 4.112L59 45l-2.856-2.916-4.553-4.36-14.087 2.899c-2.582.472-4.484 2.472-4.733 5.056l-5.164 57.574z" fill="#1E88E5"/><path d="M100.943 69.275l1.381-.697.34 1.259 2.265 18.427-.612 7.685-3.374-26.674z" fill="#F8883C"/><path d="M102.324 68.578L76.46 71.59l-3.805.922 28.288-3.236 1.381-.697z" fill="#F8883C"/><path d="M72.655 72.51l2.876 26.383 11.46-1.168 5.82-.607 11.506-1.169-3.374-26.674-28.288 3.236z" fill="#FFA620"/><path d="M73.946 84.353l1.585 14.54 11.46-1.168 5.82-.607 11.506-1.191-1.404-11.057a36.03 36.03 0 01-13.86 2.742 35.732 35.732 0 01-15.107-3.258zM89.46 70.578l.883 6.742-5.82.674-.907-6.742 5.844-.674z" fill="#F8883C"/></g><g clip-path="url(#clip0)"><path d="M53.947 33.364l.272 6.652S56 43 59 45c3.5-3 4.731-5.905 4.731-5.905l-.747-7.304 4.144-11.416-3.012-8.36-14.676.855-.408 5.775s-1.404 3.91-2.015 5.64c-.068.203-.068.405.067.607.136.203.272.27.476.338.544.067 1.133.202 1.133.202s-.068 1.123-.136 2.719c-.068 1.595.068 2.067.407 2.989.906 2.292 4.983 2.224 4.983 2.224z" fill="#FFB8B8"/><path d="M52.135 19.477c0-.27-.136-.472-.408-.54-.272 0-.475.135-.543.405 0 .202-.068.54-.068.741 0 .27.203.472.407.54a.591.591 0 00.544-.405c.068-.225.068-.472.068-.741z" fill="#333"/><path d="M47.854 26.106c.34-.787.816-.787.816-.787s2.876-.337 4.688 1.191c1.268 1.057 1.472 2.135 2.74 2 2.356-.202 2.47-2.854 2.673-3.797.204-1.124.136-3.057.136-4.18-.136-3.46 1.608-5.124 1.336-4.922-.747.472-1.948.787-3.42.27-2.22-.786-3.216-.742-4.212-.674-1.88.067-3.624 1.528-6.16.337-3.896-1.798-5.029-8.562-3.489-9.37 1.948-.922 1.676.92 5.708.606 1.608-.135 3.012-.607 7.768-1.73 7.565-1.798 10.328-.203 11.596 1.73 1.54 2.314.612 4.786.612 4.786s2.468.203 3.012 3.529c.272 1.595-.815 4.045-2.288 6.651-2.423 4.113-2.468 3.73-3.623 8.045-.476 1.73-1.676 2.585-2.74 2.652 0 0-.408-1.393-.612-3.73-.204-1.798-.476-5.371-.476-5.371s1.065.337 1.812-.405c.68-.606.476-2.067-.068-2.584-.997-.921-2.287-.337-2.287-.337s-.136 4.652-.34 5.64c-.272 1.326-.793 2.45-1.812 4.045-.68 1.057-1.812 1.866-2.74 2.652-.997.854-2.016 1.393-3.42 1.933-1.676.674-3.285.54-4.553-.674-1.608-1.663-.136-4.315-.136-4.315s.544-.067 1.2.067c.816.203 1.744.54 2.152.27.476-.337.544-.989.272-1.46-.68-1.124-2.944-.787-3.624-.742-.657.067-.657-.922-.52-1.326z" fill="#333"/><path d="M53.902 17.993l-.272-.202.045-.067-.045.067a3.24 3.24 0 00-.997-.315l.023-.067v.067c-.227-.022-.43-.044-.634-.044-.295 0-.566.022-.883.112-.204.045-.476.135-.725.135a.802.802 0 01-.476-.158c-.023-.022-.045-.067-.023-.112.023-.022.069-.045.114-.022.113.09.226.112.362.112.227 0 .476-.09.702-.135l.023.067-.023-.067c.317-.09.612-.112.929-.112.204 0 .43.022.657.045.34.067.747.202 1.019.337h.023l.271.202c.046.023.046.067.023.112-.023.068-.068.09-.113.045z" fill="#333"/><path d="M51.116 28.173c-.408.248-.906.337-1.382.337-.43 0-.86-.067-1.2-.135-.045 0-.068-.044-.068-.09 0-.044.045-.067.09-.067.34.068.77.135 1.178.135.476 0 .929-.067 1.314-.315.045-.022.09-.022.113.023a.17.17 0 01-.045.112z" fill="#DE1414"/><path d="M63.8 34.69l2.377 3.124v7.011l-4.892-2.921L63.8 34.69zm-10.17.225l-2.288 2.854-.09 7.28 4.824-3.033-2.446-7.101z" fill="#fff"/><path d="M66.177 44.825l-4.892-2.921L59 45l-2.924-2.984-4.824 3.034 4.643-1.933L59 45l2.376-1.905 4.801 1.73z" fill="#245F94"/></g><rect x="8.4" y="47.3" width="45" height="56.7" rx="1.8" fill="#D4EAFF"/><g clip-path="url(#clip1)" fill="#FFB8B8"><path d="M7.059 73.824c.135.36.747.651 1.404.382.68-.27 2.31-.967 2.174-1.708-.09-.54-.951-.517-.974-.674-.023-.158 1.246-.495 1.2-1.101-.067-.63-1.064-.742-1.064-.922 0-.18 1.178-.427 1.11-1.034-.068-.629-.86-.719-1.178-.741-.317-.023-1.2-.09-1.2-.315 0-.202 1.019-.36 1.155-.382.181-.022 1.064-.18 1.132-.809.023-.337-.407-.764-.838-.854-.43-.09-1.45-.337-1.45-.337L8.4 64.3s-2.134.333-2.27 1.569c-.136 1.236.747 1.528.725 1.752-.023.225-1.178.585-1.178 1.439 0 .988.838 1.213.838 1.438 0 .225-.43.36-.294 1.056.135.674.883.764.928.989.068.224-.385.584-.09 1.28zM8.4 63.4s-.843-.453-1.41-.947c-.566-.495-.883-1.124-.679-1.416.181-.315 2.088-.337 2.088-.337v2.7z"/></g><circle cx="49.044" cy="51.855" r="1.58" fill="#D6001D"/><rect x="12.9" y="54.5" width="14.221" height="1.58" rx=".79" fill="#fff"/><rect x="12.9" y="59" width="36.9" height="1.8" rx=".9" fill="#fff"/><rect x="12.9" y="63.5" width="36.9" height="1.8" rx=".9" fill="#fff"/><rect x="12.9" y="68" width="36.9" height="1.8" rx=".9" fill="#fff"/><rect x="12.9" y="76.1" width="26.1" height="1.8" rx=".9" fill="#fff"/><rect x="12.9" y="80.6" width="11.061" height="1.58" rx=".79" fill="#fff"/><defs><clipPath id="clip0"><path fill="#fff" transform="translate(4.8 4.24)" d="M0 0h67.156v67.156H0z"/></clipPath><clipPath id="clip1"><path fill="#fff" transform="matrix(-1 0 0 1 10.932 60.7)" d="M0 0h5.232v13.596H0z"/></clipPath></defs></svg>