<svg width="110" height="100" fill="none" xmlns="http://www.w3.org/2000/svg"><g clip-path="url(#clip0)"><path d="M81.179 91.268C65.25 95.894 30.199 85.5 19.582 69.18c-7.256-11.147-4.879-29.717 8.939-38.55 13.818-8.833 24.782-2.353 34.168-9.478 9.264-7.016 26.314-13.465 38.983-.117 8.843 9.31 10.323 22.182 5.307 41.526-3.484 10.656-5.534 22.836-25.8 28.707z" fill="#EAF5FF"/><mask id="a" maskUnits="userSpaceOnUse" x="8" y="-3" width="111" height="105"><path d="M81.18 91.268C65.25 95.894 30.2 85.5 19.582 69.18c-7.256-11.147-4.88-29.717 8.939-38.55 13.817-8.833 24.782-2.353 34.167-9.478 9.265-7.016 26.314-13.465 38.983-.117 8.843 9.31 10.323 22.182 5.308 41.526-3.484 10.656-5.534 22.836-25.8 28.707z" fill="#EAF5FF"/></mask><g mask="url(#a)"><path d="M24.229 84.117c36.011 10.469 37.962-10.71 64.162 0 0 0 8.24 17.516-1.759 22.072-9.998 4.556-52.835-11.595-54.722-11.15 0-.546-9.488-9.83-7.681-10.922z" fill="#970519"/></g><path fill-rule="evenodd" clip-rule="evenodd" d="M53.48 57.88s-1.945-3.706-2.513-7.17c-1.014-6.162-1.257-14.257-1.257-14.257s2.676 3.624 3.811 3.02c1.136-.644-3.608-4.873-3.608-4.873s1.743-7.612 3.203-11.479c3.933-10.552 8.15-16.674 8.15-16.674s2.31 2.095 4.135 7.089C66.7 17.12 67.104 24.53 67.104 24.53s-4.095 2.256-3.892 4.068c.202 1.772 4.054-2.215 4.054-2.215s-.284 4.793-1.013 9.505c-1.298 8.296-3.771 11.478-3.771 11.478s-5.271.403-5.352 1.813c-.081 1.369 4.865-.403 4.865-.403s.04-.564-2.797 2.618c-2.839 3.141-5.717 6.484-5.717 6.484z" fill="#D4EAFF"/><path fill-rule="evenodd" clip-rule="evenodd" d="M61.134 6.69a.246.246 0 01.292.19c1.553 7.39-.205 16.3-1.54 22.695-.798 3.898-1.706 7.23-2.581 10.445a390.686 390.686 0 00-.838 3.11c-1.114 4.223-2.094 8.508-2.619 13.927-.566 5.703-.525 11.605.202 17.304.176 1.397.457 2.811.739 4.225.106.534.212 1.068.313 1.6l.05.266c.106.566.214 1.145.352 1.694a.247.247 0 01-.478.12 29.581 29.581 0 01-.36-1.726 110.76 110.76 0 00-.358-1.842c-.282-1.42-.57-2.86-.747-4.275-.732-5.738-.773-11.677-.204-17.413.53-5.456 1.516-9.769 2.633-14.004.274-1.042.556-2.078.841-3.124.875-3.212 1.778-6.524 2.571-10.405v-.002c1.34-6.413 3.07-15.222 1.541-22.494a.245.245 0 01.191-.29zM28.218 42.128a.246.246 0 01.25-.24c7.287.123 13.308 6.605 16.644 14.365 1.491 3.47 2.694 8.578 3.67 13.491a374.34 374.34 0 011.315 7.07c.379 2.12.71 3.97 1.002 5.342a.247.247 0 01-.482.102c-.292-1.369-.626-3.236-1.008-5.369-.386-2.159-.821-4.59-1.31-7.05-.977-4.914-2.172-9.976-3.64-13.393-3.313-7.706-9.213-13.95-16.199-14.068a.246.246 0 01-.242-.25zm7.867 25.958a.246.246 0 01.27-.22c2.78.27 5.063 1.888 6.764 3.802 1.701 1.915 2.843 4.15 3.34 5.712v.002c.327 1.057.572 2.112.816 3.2.12.516.25 1.11.209 1.674v.071c0 .136-.11.246-.247.246a.246.246 0 01-.247-.246v-.08l.001-.019c.037-.48-.074-1.009-.197-1.537v-.002c-.243-1.087-.485-2.125-.806-3.162-.477-1.499-1.585-3.673-3.239-5.534-1.654-1.862-3.83-3.385-6.443-3.639a.246.246 0 01-.221-.268z" fill="#AAD5FB"/><path fill-rule="evenodd" clip-rule="evenodd" d="M26.843 43.702c-4.217-.765-3.812-3.705-10.177-1.933-4.744 1.289-6.042 5.478-10.583 6.364-2.352.483-8.312-.121-3.69 1.973C7.056 52.2 14.03 52.2 17.111 50.51c3.082-1.651 5.23-4.672 6.407-4.068.81.443-2.19 3.182-2.19 3.182s2.393-.121 10.988-3.786c4.095-1.772-1.257-1.37-5.474-2.135z" fill="#AAD5FB"/><mask id="b" maskUnits="userSpaceOnUse" x="9" y="18" width="102" height="80"><path d="M110 58c3 19.5-9 37-50.5 40C15 97 9 80.091 9 58s22.61-40 50.5-40S110 35.909 110 58z" fill="#C4C4C4"/></mask><g mask="url(#b)"><path fill-rule="evenodd" clip-rule="evenodd" d="M53.48 57.88s-1.945-3.706-2.513-7.17c-1.014-6.162-1.257-14.257-1.257-14.257s2.676 3.624 3.811 3.02c1.136-.644-3.608-4.873-3.608-4.873s1.743-7.612 3.203-11.479c3.933-10.552 8.15-16.674 8.15-16.674s2.31 2.095 4.135 7.089C66.7 17.12 67.104 24.53 67.104 24.53s-4.095 2.256-3.892 4.068c.202 1.772 4.054-2.215 4.054-2.215s-.284 4.793-1.013 9.505c-1.298 8.296-3.771 11.478-3.771 11.478s-5.271.403-5.352 1.813c-.081 1.369 4.865-.403 4.865-.403s.04-.564-2.797 2.618c-2.839 3.141-5.717 6.484-5.717 6.484zm-5.626 7.227s1.176-4.712.487-8.981c-.933-5.961-4.866-10.794-4.866-10.794s-.851 4.55-1.905 3.423c-1.054-1.128.73-4.752.73-4.752s-.365-1.571-3.771-2.497c-4.339-1.168-7.623.483-9.893.443-2.271-.04-3-.645-7.745-.967-3.203-.201-5.838 1.37-5.838 1.37s7.582-.524 14.11 6.04c3 3.021 5.879 6.203 5.879 6.203s4.906-.886 5.92 1.047c.648 1.29-4.988.564-4.988.564s1.622 2.215 4.744 4.511c3.122 2.296 7.136 4.39 7.136 4.39z" fill="#D4EAFF"/><path fill-rule="evenodd" clip-rule="evenodd" d="M61.134 6.69a.246.246 0 01.292.19c1.553 7.39-.205 16.3-1.54 22.695-.798 3.898-1.706 7.23-2.581 10.445a390.686 390.686 0 00-.838 3.11c-1.114 4.223-2.094 8.508-2.619 13.927-.566 5.703-.525 11.605.202 17.304.176 1.397.457 2.811.739 4.225.106.534.212 1.068.313 1.6l.05.266c.106.566.214 1.145.352 1.694a.247.247 0 01-.478.12 29.581 29.581 0 01-.36-1.726 110.76 110.76 0 00-.358-1.842c-.282-1.42-.57-2.86-.747-4.275-.732-5.738-.773-11.677-.204-17.413.53-5.456 1.516-9.769 2.633-14.004.274-1.042.556-2.078.841-3.124.875-3.212 1.778-6.524 2.571-10.405v-.002c1.34-6.413 3.07-15.222 1.541-22.494a.245.245 0 01.191-.29zM28.218 42.128a.246.246 0 01.25-.24c7.287.123 13.308 6.605 16.644 14.365 1.491 3.47 2.694 8.578 3.67 13.491a374.34 374.34 0 011.315 7.07c.379 2.12.71 3.97 1.002 5.342a.247.247 0 01-.482.102c-.292-1.369-.626-3.236-1.008-5.369-.386-2.159-.821-4.59-1.31-7.05-.977-4.914-2.172-9.976-3.64-13.393-3.313-7.706-9.213-13.95-16.199-14.068a.246.246 0 01-.242-.25zm7.867 25.958a.246.246 0 01.27-.22c2.78.27 5.063 1.888 6.764 3.802 1.701 1.915 2.843 4.15 3.34 5.712v.002c.327 1.057.572 2.112.816 3.2.12.516.25 1.11.209 1.674v.071c0 .136-.11.246-.247.246a.246.246 0 01-.247-.246v-.08l.001-.019c.037-.48-.074-1.009-.197-1.537v-.002c-.243-1.087-.485-2.125-.806-3.162-.477-1.499-1.585-3.673-3.239-5.534-1.654-1.862-3.83-3.385-6.443-3.639a.246.246 0 01-.221-.268z" fill="#AAD5FB"/><path d="M63.888 44.049c-8.069 17.268-25.753 26.874-25.753 26.874l1.548 8.436s19.209-5.565 24.978-10.556c5.77-4.99-.773-24.754-.773-24.754z" fill="#D6001D"/><path opacity=".5" d="M63.888 44.049c-8.069 17.268-25.753 26.874-25.753 26.874l1.548 8.436s19.209-5.565 24.978-10.556c5.77-4.99-.773-24.754-.773-24.754z" fill="#970519"/><path d="M70.213 39.145c13.365-4.518 22.852.355 25.637 11.043 2.21 5.255-4.709 26.232-5.949 37.66-12 3.5-31.497-2.527-30.635-2.527.863 0 7.384-13.272 3.338-19.985-5.239-8.7-.636-23.497 7.61-26.191z" fill="#D6001D"/><path d="M51.59 90.766s-31.16-7-31.58-7.11c-.42-.11-.486-.92 0-.96l14.759-5.002a.452.452 0 01.243 0l31.035 8.082a.41.41 0 01.31.442l-.045.75a.449.449 0 01-.331.376l-14.015 3.445a.738.738 0 01-.376-.023z" fill="#AAD5FB"/><path d="M51.834 89.42l-30.97-7.641c-.088-.022-.088-.155 0-.177l14.148-5.035h.066l31.035 9.165c.089.022.089.154 0 .176L51.9 89.42h-.066z" fill="#AAD5FB"/><path opacity=".2" d="M51.834 89.42l-30.97-7.641c-.088-.022-.088-.155 0-.177l14.148-5.035h.066l31.035 9.165c.089.022.089.154 0 .176L51.9 89.42h-.066z" fill="#5C9FDB"/><path d="M52.673 89.265l-1.039.243a1.202 1.202 0 01-.398 0l-28.89-7.597a.812.812 0 01-.553-.485L13.171 61.22c-.155-.375.022-.53.375-.75l.53-.265c.553-.243.973-.221 1.194-.177l29.82 6.536a.865.865 0 01.619.552l7.051 20.868c.155.442.398 1.148-.088 1.28z" fill="#AAD5FB"/><path d="M51.016 89.861L19.98 83.06a.45.45 0 01-.31-.287l-6.653-21.575a.439.439 0 01.509-.552l30.77 6.868c.154.044.265.132.31.287l6.918 21.53c.088.31-.177.596-.508.53z" fill="#D4EAFF"/><path d="M32.89 74.956c.596 1.722.287 3.4-.664 3.731-.95.332-2.21-.817-2.807-2.539-.597-1.722-.288-3.4.663-3.732.95-.331 2.21.817 2.807 2.54z" fill="#fff"/><path d="M73.455 81.141c-5.482-.861-13.86 2.474-13.44 3.07 1.636 2.407 7.118 2.12 10.566 1.92 3.449-.198 5.77-3.069 5.77-3.069l-2.896-1.92z" fill="#FFB8B8"/><path d="M86.263 39.145c6.962 2.208 27.073 27.973 22.409 32.235-4.664 4.262-21.486 9.738-28.56 11.196-7.073 1.457-8.002-.133-7.206-1.745.796-1.59 20.425-13.47 20.425-13.47s-4.93-4.262-6.41-8.259c-2.918-7.883-.659-19.957-.659-19.957z" fill="#D6001D"/><path d="M72.42 82.686c.464.574 1.414.861 2.895.861 1.194 0 2.741-.199 4.665-.53 7.515-1.568 23.95-7.315 28.658-11.6.619-.551.791-1.29.711-2.371 0 0-.283 1.26-1.181 2.079-4.575 4.173-21.004 9.882-28.277 11.384-5.217 1.082-6.654.42-7.03-.088-.309-.376-.132-.906.045-1.281.575-1.148 12.555-8.678 20.47-13.47a.232.232 0 00.11-.199c0-.088-.023-.177-.089-.22-.066-.045-4.951-4.285-6.388-8.215l-.265-.795c-.045-.133-.177-.221-.31-.177-.132.044-.22.177-.177.31.067.286.177.551.266.816 1.304 3.555 5.194 7.243 6.255 8.193-3.028 1.855-19.563 11.924-20.358 13.492-.376.707-.354 1.347 0 1.81z" fill="#970519"/><path d="M93 67.736c-.089 0-.155-.044-.2-.132a.25.25 0 01.09-.331c2.829-1.59 7.647-3.026 7.692-3.048.132-.044.265.044.309.155.044.132-.044.265-.155.31-.044.021-4.819 1.434-7.582 3.002-.066.045-.11.044-.154.044z" fill="#970519"/></g><g clip-path="url(#clip1)"><path d="M86.125 57.137a.259.259 0 01-.243-.199 23.024 23.024 0 01-.398-3.202c0-.132.089-.243.221-.243.133 0 .244.089.244.221.066 1.126.198 2.164.375 3.136a.25.25 0 01-.199.287c.022 0 .045 0 0 0zM93 67.736c-.088 0-.155-.044-.199-.132a.25.25 0 01.089-.331c2.829-1.59 7.648-3.026 7.692-3.048.133-.044.265.044.31.155.044.132-.045.265-.155.31-.044.021-4.819 1.434-7.582 3.002-.066.045-.11.044-.155.044z" fill="#970519"/><path fill-rule="evenodd" clip-rule="evenodd" d="M62.694 19.473c-.572.877-1.22-3.113.66-5.64.178-.242.737-.852.966-1.055 2.121-1.944 6.681-1.423 7.253-1.575 1.639-.432-2.706-2.91-1.55-6.428C71.6-.002 76.235-.192 78.383.227c2.171.42 5.093 2.388 5.589 4.726.368 1.727.152 4.027-1.64 5.881-1.142 1.182-2.857 1.906-3.022 2.198-.102.19 3.328 1.804 4.319 5.03.571 1.856.902 3.875-.648 7.051-1.182 2.414-6.085 6.48-6.644 6.187-1.626-.864 1.83-9.274 1.296-11.98-.699-3.531-4.281-6.351-6.174-6.39-6.555-.14-7.482 4.612-8.766 6.543z" fill="#212122"/><path fill-rule="evenodd" clip-rule="evenodd" d="M83.067 39.317s-3.836-2.299-4.853-5.068c-1.016-2.77-.444-4.879-.444-4.879s2.083-1.702 2.388-3.773c.305-2.058.445-5.526-1.207-7.546-1.651-2.02-2.973-3.658-6.72-3.9-3.747-.241-6.314.61-7.292 2.516-.965 1.905-1.524 5.564-1.003 9.095.419 2.859.952 8.55 4.014 9.338 1.486.38 2.718.165 2.718.165s.521.711.293 2.4c-.051.37-.204.763-.42 1.157-.762 1.385-3.16 2.625-3.16 2.625s.912 4.822 3.58 4.606c2.655-.23 12.106-6.736 12.106-6.736z" fill="#FFB8B8"/><mask id="c" maskUnits="userSpaceOnUse" x="63" y="14" width="21" height="32"><path fill-rule="evenodd" clip-rule="evenodd" d="M83.067 39.317s-3.836-2.299-4.853-5.068c-1.016-2.77-.444-4.879-.444-4.879s2.083-1.702 2.388-3.773c.305-2.058.445-5.526-1.207-7.546-1.651-2.02-2.973-3.658-6.72-3.9-3.747-.241-6.314.61-7.292 2.516-.965 1.905-1.524 5.564-1.003 9.095.419 2.859.952 8.55 4.014 9.338 1.486.38 2.718.165 2.718.165s.521.711.293 2.4c-.051.37-.204.763-.42 1.157-.762 1.385-1.6 3.798-1.6 3.798s2.185 2.795 4.852 2.58c2.655-.23 9.274-5.883 9.274-5.883z" fill="#FFB8B8"/></mask><g mask="url(#c)" fill-rule="evenodd" clip-rule="evenodd"><path opacity=".2" d="M64.306 33.303c-5.553-12.407-3.728-13.009-1.964-13.49.583-.175.554-.269 1.36.457.47.42-.424 2.323.633 2.259 1.296-.085 2.393.145 2.507 1.335.037.448.105.836-.26 2.222-.172.562-.41 1.399-.507 1.888a.459.459 0 00.215.547c.294.166.707.4.822.62.245.487.023 1.37.023 1.37l-.124.242s.545.346.445.988c-.2 1.285-.044 1.8.366 2.186.483.466 1.094 1.646 1.049 1.66-.255.128-2.156-.789-2.422-.861-1.095-.384-1.596-.26-2.142-1.422z" fill="#F06666"/><path d="M67.202 31.647c.796.008 1.96-.74 1.951-.936-.041-.137-.66-.05-1.038.015-.573.074-.619.087-1.07.074-.15-.004-.946-.012-1.023.061-.096.178.638.8 1.18.786z" fill="#DE1414"/><path d="M70.287 39.178s2.287-1.576 3.1-2.655c.914-1.195 1.537-3.329 1.537-3.329s-1.067.788-2.033 1.334c-1.168.648-2.299.762-2.299.762s-.292 3.583-.305 3.888z" fill="#FFB8B8"/><path opacity=".2" d="M70.287 39.178s2.287-1.576 3.1-2.655c.914-1.195 1.537-3.329 1.537-3.329s-1.067.788-2.033 1.334c-1.168.648-2.299.762-2.299.762s-.292 3.583-.305 3.888z" fill="#F06666"/></g><path fill-rule="evenodd" clip-rule="evenodd" d="M63.847 22.917s-.165-4.497 2.693-6.098c2.871-1.6 6.327-.28 7.8 1.728 1.436 1.956 2.554 5.094 2.554 5.094s1.346-1.588 2.26-.305c.636.902.801 2.554-1.168 3.303-.102.038-.838 1.512-.775 3.735.178 5.844 4.637-4.611 5.209-4.281l.584-1.931-1.105-2.338-2.859-6.415-4.052-3.963-5.907.965-4.383 2.655s-1.715 2.452-2.045 3.722c-.698 2.82 1.194 4.129 1.194 4.129z" fill="#212122"/><path fill-rule="evenodd" clip-rule="evenodd" d="M74.406 20.502c3.773-2.439-.089-6.67-.089-6.67s-2.528-1.943-5.805-1.397c-3.024.508-3.545 1.144-4.485 2.223-1.245 1.423-1.003 3.774-1.003 3.774s.28.343.711.749c.432.406 1.156.99 1.156.99s.203-1.32.381-1.765c.165-.445.56-1.563.56-1.563s-.204 1.474-.23 1.931c-.025.458.128 1.69.128 1.69s.508.292.8.381c1.029.33 2.49.991 4.853.483.089-.026-.775-.42-1.334-1.334-1.093-1.766-.508-4.37-.508-4.37s.012 3.087 2.07 4.256c1.321.75 2.223.813 2.223.813s.381-.077.572-.19z" fill="#212122"/><path d="M65.589 25.773c.253.022.413-.268.425-.533l-.033-.586c.004-.33-.229-.553-.434-.584-.253-.023-.413.267-.425.532l.033.587c-.004.33.238.617.434.584z" fill="#212122"/><path fill-rule="evenodd" clip-rule="evenodd" d="M71.675 23.221c-.977-.676-2.248-.674-3.155-.275a.149.149 0 10.12.272c.827-.363 1.986-.361 2.866.248a.149.149 0 10.17-.245z" fill="#212122"/><path d="M70.167 24.382c-.28-.02-.459.282-.475.556l.03.606c-.007.34.247.568.473.598.28.02.458-.282.475-.556l-.03-.605c.006-.341-.248-.57-.473-.599z" fill="#212122"/><path fill-rule="evenodd" clip-rule="evenodd" d="M64.963 22.406c-.445-.005-.909.075-1.28.273a.149.149 0 00.141.262c.313-.167.723-.242 1.135-.237.412.005.811.09 1.097.226a.149.149 0 10.128-.268c-.333-.16-.776-.25-1.221-.256z" fill="#212122"/></g></g><defs><clipPath id="clip0"><path fill="#fff" transform="matrix(-1 0 0 1 110 0)" d="M0 0h110v100H0z"/></clipPath><clipPath id="clip1"><path fill="#fff" transform="translate(29.158)" d="M0 0h66.316v70.921H0z"/></clipPath></defs></svg>